<svg width="28" height="28" viewBox="0 0 28 28" fill="none" xmlns="http://www.w3.org/2000/svg">
<g clip-path="url(#clip0_6488_31309)">
<path d="M25.8543 28H6.80697C6.60979 27.9664 6.41333 27.9299 6.21614 27.8992C3.00908 27.3967 0.312223 24.7134 0.0241374 21.2107C-0.238292 18.0133 1.6273 14.9714 4.65476 13.7802C5.26759 13.5392 5.92292 13.4026 6.58706 13.2105V12.9293C6.58706 9.4945 6.58706 6.05895 6.58706 2.62413C6.58779 1.04439 7.63091 0.00511242 9.21648 0.00511242C13.3047 0.00438208 17.3936 0.00730346 21.4825 0C21.8571 0 22.1451 0.114664 22.4083 0.37905C24.1361 2.11143 25.869 3.83797 27.6085 5.55866C27.8805 5.82743 28.0007 6.12103 27.9999 6.50519C27.9911 10.0948 27.9948 13.6852 27.9948 17.2749C27.9948 20.0086 28.0007 22.7422 27.9919 25.4752C27.9882 26.5649 27.4736 27.3485 26.4767 27.8028C26.2802 27.8926 26.0618 27.935 25.8536 27.9993L25.8543 28ZM14.8279 19.7982C14.9826 19.7982 15.1644 19.7982 15.3462 19.7982C17.9712 19.7982 20.5962 19.8004 23.2212 19.796C23.6171 19.796 23.9213 19.9348 24.0833 20.3014C24.3325 20.8652 23.9096 21.4371 23.2462 21.4378C20.5295 21.44 17.8129 21.4386 15.0962 21.4386H14.7773C14.5193 23.4302 13.6199 25.0421 12.0753 26.3596C12.2329 26.3596 12.315 26.3596 12.3972 26.3596C16.7148 26.3596 21.0317 26.3596 25.3493 26.3596C26.0442 26.3596 26.3469 26.0551 26.3469 25.3583C26.3469 19.3812 26.3469 13.404 26.3469 7.42689V7.11284H26.0207C24.6214 7.11284 23.222 7.11284 21.8226 7.11284C21.1783 7.11284 20.8587 6.79733 20.8579 6.1612C20.8572 4.7582 20.8579 3.35521 20.8579 1.95148C20.8579 1.85508 20.8579 1.75867 20.8579 1.64474H20.5515C16.7646 1.64474 12.9777 1.64474 9.19083 1.64474C8.55088 1.64474 8.23274 1.96244 8.23274 2.60222C8.23274 6.06479 8.23274 9.52663 8.23274 12.9892V13.2791C9.59473 13.4479 10.7918 13.9277 11.8679 14.7172C11.9947 14.81 12.1787 14.8698 12.3363 14.8698C15.9216 14.8786 19.5077 14.8764 23.093 14.8764C23.1846 14.8764 23.2762 14.8728 23.3671 14.8786C23.7908 14.9064 24.1266 15.2401 24.1493 15.6528C24.172 16.064 23.8707 16.4379 23.4536 16.5051C23.3466 16.5226 23.2344 16.516 23.1252 16.516C20.0611 16.516 16.997 16.516 13.9329 16.516H13.6287C13.8867 17.0616 14.1682 17.5641 14.3632 18.0972C14.5589 18.6326 14.6674 19.1993 14.8265 19.7968L14.8279 19.7982ZM7.41027 14.8771C4.23693 14.8771 1.65076 17.4516 1.64783 20.6118C1.64489 23.7728 4.22667 26.3531 7.39781 26.3596C10.5821 26.3655 13.1778 23.783 13.1742 20.6104C13.1705 17.4502 10.5836 14.8764 7.41027 14.8771ZM25.0517 5.46299C24.2094 4.62382 23.351 3.76931 22.5241 2.94475V5.46299" fill="white"/>
<path d="M17.2881 9.95573C19.2805 9.95573 21.2736 9.95354 23.266 9.95719C23.9096 9.95792 24.3238 10.5276 24.087 11.0841C23.9448 11.4179 23.6773 11.5902 23.3137 11.5946C22.7742 11.6005 22.2354 11.5968 21.6959 11.5968C18.2769 11.5968 14.8588 11.5968 11.4399 11.5961C11.3218 11.5961 11.2002 11.6005 11.0858 11.5756C10.6687 11.4858 10.3894 11.0987 10.4341 10.6912C10.481 10.269 10.8292 9.95938 11.2823 9.95865C13.1009 9.955 14.9204 9.95719 16.739 9.95719C16.9216 9.95719 17.1048 9.95719 17.2873 9.95719L17.2881 9.95573Z" fill="white"/>
<path d="M8.24526 19.8097C9.13884 19.8053 9.99796 19.7921 10.8564 19.8002C11.5483 19.8067 11.9405 20.4677 11.6041 21.0396C11.4355 21.3266 11.1672 21.4383 10.8432 21.4391C10.0845 21.4391 9.32503 21.4413 8.56633 21.4369C8.46737 21.4369 8.36768 21.4055 8.24746 21.385C8.24159 21.5537 8.235 21.6509 8.235 21.748C8.23426 22.5039 8.23793 23.2605 8.23353 24.0165C8.2306 24.5503 7.89267 24.9162 7.41179 24.917C6.93165 24.9177 6.58932 24.5525 6.58785 24.0186C6.58565 23.1722 6.59445 22.3257 6.59885 21.331C6.44857 21.3719 6.32469 21.4332 6.2008 21.4347C5.4509 21.4434 4.701 21.4478 3.95183 21.4361C3.26571 21.4259 2.87719 20.7525 3.22246 20.1858C3.40205 19.8907 3.68574 19.7936 4.01707 19.7951C4.85787 19.798 5.69867 19.798 6.57319 19.7994C6.57759 19.6913 6.58419 19.5964 6.58419 19.5007C6.58565 18.7266 6.57539 17.9517 6.58858 17.1775C6.59958 16.491 7.26811 16.1039 7.83915 16.4435C8.12577 16.6144 8.23426 16.8832 8.23426 17.2053C8.23426 17.9707 8.23426 18.7353 8.23426 19.5007C8.23426 19.5898 8.24013 19.6789 8.24453 19.8097H8.24526Z" fill="white"/>
</g>
<defs>
<clipPath id="clip0_6488_31309">
<rect width="28" height="28" fill="white"/>
</clipPath>
</defs>
</svg>
