<svg width="28" height="28" viewBox="0 0 28 28" fill="none" xmlns="http://www.w3.org/2000/svg">
<g clip-path="url(#clip0_6488_31321)">
<path d="M0 13.1547C0.0875 12.9469 0.150937 12.7245 0.266875 12.5342C0.606667 11.9778 1.12365 11.6993 1.76896 11.6978C4.86135 11.6913 7.95375 11.6869 11.0461 11.6993C12.0947 11.7037 12.8129 12.4722 12.8144 13.5477C12.8195 15.9299 12.8158 18.3121 12.8158 20.695C12.8158 22.4137 12.8158 24.1323 12.8158 25.851C12.8158 27.111 12.5132 27.5565 11.3553 28.0005H1.47437C1.21479 27.8817 0.937708 27.7913 0.700729 27.6381C0.302604 27.3829 0.123958 26.9666 0 26.5269C0 22.0695 0 17.6121 0 13.1547ZM11.6419 19.8514C11.6419 17.7689 11.6419 15.6856 11.6419 13.6031C11.6419 13.0526 11.4559 12.8681 10.9032 12.8681C7.91 12.8674 4.9175 12.8681 1.92427 12.8681C1.34823 12.8681 1.16083 13.0585 1.16083 13.6411C1.16083 17.7791 1.16083 21.9171 1.16083 26.0558C1.16083 26.6421 1.36062 26.8404 1.94906 26.8404C4.92406 26.8404 7.89833 26.8404 10.8733 26.8404C11.4523 26.8404 11.6426 26.6501 11.6426 26.0719C11.6426 23.9981 11.6426 21.9244 11.6426 19.8514H11.6419Z" fill="white"/>
<path d="M0 1.47371C0.0357292 1.38329 0.074375 1.2936 0.107917 1.20246C0.355104 0.533083 0.979271 0.0605834 1.68802 0.059125C4.83437 0.0518334 7.98073 0.0489167 11.1271 0.0605834C12.0458 0.0642292 12.7932 0.810896 12.8049 1.76683C12.8297 3.73048 12.8319 5.69485 12.8049 7.65777C12.7903 8.68006 12.0159 9.36985 10.9623 9.37277C9.07958 9.37788 7.1976 9.37423 5.3149 9.37423C4.25979 9.37423 3.20542 9.37423 2.15031 9.37423C0.890312 9.37423 0.441146 9.06944 0 7.91371V1.47371ZM6.38896 8.20027C7.89906 8.20027 9.40917 8.201 10.9185 8.20027C11.4494 8.20027 11.6411 8.00777 11.6411 7.47694C11.6426 5.64017 11.6426 3.80267 11.6411 1.9659C11.6411 1.4059 11.4479 1.21485 10.8828 1.21485C7.89906 1.21485 4.91604 1.21485 1.93229 1.21485C1.36354 1.21485 1.1601 1.41902 1.1601 1.98777C1.15937 3.80631 1.15937 5.62558 1.1601 7.44413C1.1601 8.00777 1.35187 8.20027 1.91333 8.201C3.40521 8.20173 4.89708 8.201 6.38823 8.201L6.38896 8.20027Z" fill="white"/>
<path d="M16.5966 28.0008C16.3589 27.8936 16.1 27.817 15.8871 27.6726C15.3847 27.3336 15.1419 26.8326 15.1397 26.2318C15.1331 24.3032 15.1258 22.3745 15.1419 20.4466C15.1499 19.4301 15.8958 18.6893 16.9138 18.6857C19.9981 18.6747 23.0825 18.6755 26.1676 18.6857C27.2118 18.6893 27.949 19.4491 27.9511 20.4904C27.9555 22.3731 27.9533 24.2565 27.9519 26.1392C27.9519 27.0937 27.4816 27.7018 26.5504 27.9643C26.5249 27.9716 26.5023 27.9891 26.4782 28.0015H16.5966V28.0008ZM21.5702 19.8545C20.0696 19.8545 18.5682 19.8545 17.0676 19.8545C16.493 19.8545 16.3107 20.0332 16.31 20.5975C16.3093 22.4256 16.3093 24.2536 16.31 26.0809C16.31 26.6423 16.5047 26.8392 17.061 26.8399C20.0535 26.8407 23.046 26.8407 26.0385 26.8399C26.5745 26.8399 26.7903 26.6292 26.791 26.1013C26.7925 24.2645 26.7925 22.427 26.791 20.5902C26.791 20.0485 26.5934 19.8545 26.0451 19.8545C24.5532 19.8531 23.0614 19.8545 21.5702 19.8545Z" fill="white"/>
<path d="M0 26.5254C0.123958 26.9651 0.302604 27.3814 0.7 27.6366C0.936979 27.789 1.21479 27.8802 1.47365 27.999H0V26.5254Z" fill="white"/>
<path d="M27.9519 8.18568C27.9519 10.2777 27.9519 12.3689 27.9519 14.4609C27.9519 15.6246 27.2263 16.3582 26.067 16.3589C23.0562 16.3611 20.0455 16.3611 17.034 16.3589C15.8732 16.3582 15.1368 15.6261 15.1368 14.4696C15.1346 10.2952 15.1353 6.12141 15.1368 1.94693C15.1368 0.782448 15.8667 0.0540104 17.0253 0.0532812C20.0455 0.0525521 23.065 0.0525521 26.0852 0.0532812C27.2147 0.0532812 27.9504 0.785364 27.9511 1.91047C27.9533 4.00245 27.9511 6.0937 27.9511 8.18568H27.9519ZM16.31 8.19297C16.31 10.2667 16.31 12.3405 16.31 14.4135C16.31 15.0143 16.4843 15.1857 17.0938 15.1857C20.0688 15.1857 23.0431 15.1857 26.0181 15.1857C26.6022 15.1857 26.7918 14.999 26.7918 14.4215C26.7918 10.274 26.7918 6.12724 26.7918 1.97974C26.7918 1.41536 26.5854 1.21339 26.013 1.21266C23.038 1.21266 20.0637 1.21266 17.0887 1.21266C16.4937 1.21266 16.31 1.39786 16.31 1.99797C16.31 4.06224 16.31 6.12724 16.31 8.19151V8.19297Z" fill="white"/>
</g>
<defs>
<clipPath id="clip0_6488_31321">
<rect width="28" height="28" fill="white"/>
</clipPath>
</defs>
</svg>
