<svg width="28" height="28" viewBox="0 0 28 28" fill="none" xmlns="http://www.w3.org/2000/svg">
<path d="M24.4526 23.6335C24.8916 23.6335 25.2912 23.6298 25.69 23.6342C26.0408 23.6379 26.1961 23.799 26.1983 24.1614C26.2012 24.7068 26.2041 25.253 26.1983 25.7984C26.1873 26.8024 25.4355 27.5579 24.4308 27.5608C22.3118 27.5666 20.1921 27.563 18.0731 27.563C14.1437 27.563 10.2149 27.563 6.28544 27.563C5.08086 27.563 4.367 26.8513 4.367 25.6489C4.367 19.2818 4.367 12.9155 4.367 6.54838V6.18088C4.25909 6.17578 4.17159 6.16776 4.08336 6.16776C3.47377 6.1663 2.86492 6.16995 2.25534 6.16557C1.92502 6.16338 1.75075 6.00588 1.75002 5.69234C1.74565 4.50963 1.73325 3.32693 1.75513 2.14495C1.7719 1.25901 2.52075 0.533489 3.40669 0.493384C3.49784 0.489009 3.58825 0.490468 3.6794 0.490468C9.95533 0.490468 16.2313 0.490468 22.5072 0.490468C23.7512 0.490468 24.4534 1.19047 24.4534 2.43151C24.4534 9.37099 24.4534 16.3112 24.4534 23.2507V23.6328L24.4526 23.6335ZM23.5791 23.6335V23.3294C23.5791 16.3542 23.5791 9.37828 23.5791 2.40307C23.5791 1.69432 23.2517 1.36474 22.5495 1.36474C16.8015 1.36474 11.0542 1.36474 5.30617 1.36474H5.09763C5.14648 1.77307 5.23106 2.16391 5.23325 2.55401C5.24565 5.04557 5.23981 7.53786 5.23981 10.0294C5.23981 15.2495 5.23981 20.4696 5.23981 25.6905C5.23981 26.2913 5.59346 26.6916 6.117 26.6894C6.64054 26.6865 6.98471 26.2884 6.98544 25.6817C6.98617 25.218 6.98544 24.7542 6.98544 24.2905C6.98544 23.7502 7.10138 23.6335 7.63804 23.6335C12.8312 23.6335 18.0243 23.6335 23.2167 23.6335H23.5776H23.5791ZM7.62929 26.6902C7.75544 26.6902 7.83711 26.6902 7.91804 26.6902C13.3824 26.6902 18.8468 26.6902 24.3112 26.6902C24.3746 26.6902 24.4388 26.6923 24.5022 26.688C24.9076 26.6595 25.2751 26.3628 25.3058 25.9624C25.3422 25.487 25.3145 25.0065 25.3145 24.5231H7.87648C7.79554 25.2435 8.00554 25.9778 7.63002 26.6902H7.62929ZM4.36627 5.28109C4.36627 4.26172 4.36992 3.26349 4.36481 2.26526C4.3619 1.75266 3.98492 1.36838 3.50075 1.36474C3.00273 1.36109 2.62502 1.74682 2.62138 2.27693C2.61627 2.97693 2.61992 3.67693 2.61992 4.37693C2.61992 4.67443 2.61992 4.97193 2.61992 5.28109H4.36627Z" fill="white"/>
<path d="M17.6203 8.30953C16.7577 6.91463 14.829 6.26349 13.2023 6.79651C11.6141 7.31713 10.5379 8.74849 10.4817 10.4146C10.4679 10.8288 10.3264 10.971 9.91737 10.9717C8.83529 10.9732 7.75321 10.9732 6.67112 10.9717C6.26206 10.9717 6.11258 10.8179 6.11477 10.4117C6.13446 6.44068 9.15758 2.94432 13.09 2.34641C17.5 1.6763 21.5345 4.4238 22.5115 8.78495C22.634 9.33036 22.6574 9.90057 22.6989 10.4606C22.7237 10.7974 22.5429 10.9695 22.2067 10.9703C21.0882 10.9739 19.9697 10.9739 18.8511 10.9703C18.4989 10.9695 18.3721 10.8091 18.332 10.4474C18.2816 9.99245 18.192 9.54182 18.111 9.03943C17.29 9.47984 16.5455 9.87359 15.8105 10.2834C15.7478 10.3184 15.7237 10.4649 15.7223 10.5605C15.7106 11.3049 15.1455 11.9123 14.4178 11.9503C13.6806 11.9889 13.0506 11.4588 12.9733 10.7165C12.9142 10.1492 13.1359 9.69641 13.6208 9.39963C14.105 9.10286 14.6125 9.10797 15.0857 9.42297C15.26 9.53891 15.3723 9.52797 15.5414 9.43391C16.2225 9.05401 16.913 8.68943 17.6196 8.3088L17.6203 8.30953ZM10.6874 7.50818C10.0523 6.87234 9.4456 6.26422 8.82873 5.64661C7.73425 6.90589 7.12029 8.38172 7.00071 10.0843H9.62279C9.73362 9.11307 10.0873 8.24172 10.6874 7.50818ZM11.3757 6.81839C12.1129 6.21974 12.9813 5.85953 13.957 5.75234V3.13536C12.2514 3.25568 10.7756 3.87036 9.51487 4.96776C10.1383 5.58755 10.7494 6.19495 11.3757 6.81766V6.81839ZM17.4453 6.82276C18.0738 6.19276 18.682 5.58318 19.301 4.96338C18.0366 3.87109 16.5645 3.24839 14.8626 3.13755V5.7538C15.8382 5.85953 16.6994 6.21391 17.4453 6.82349V6.82276ZM19.9835 5.6612C19.3623 6.28318 18.7549 6.89203 18.1358 7.51255C18.2138 7.61536 18.3115 7.74297 18.4151 7.88005C18.9087 7.61609 19.3856 7.36089 19.8792 7.09766C20.0214 7.36234 20.152 7.60516 20.2905 7.86182C19.7859 8.13599 19.3105 8.39411 18.8584 8.63984C18.986 9.13859 19.1071 9.61036 19.2281 10.0836H21.8035C21.7919 8.61213 20.9642 6.6237 19.9835 5.66193V5.6612ZM14.8436 10.5364C14.8451 10.3031 14.6519 10.1047 14.4178 10.0996C14.1845 10.0945 13.9832 10.2856 13.9745 10.5189C13.9657 10.7639 14.1691 10.9724 14.4134 10.9695C14.6475 10.9666 14.8422 10.7705 14.8436 10.5364Z" fill="white"/>
<path d="M9.60605 12.7171C10.5795 12.7171 11.5529 12.7164 12.5256 12.7171C12.9537 12.7171 13.098 12.8622 13.0988 13.2902C13.0995 15.2371 13.0995 17.1833 13.0988 19.1301C13.0988 19.5574 12.9529 19.7025 12.5256 19.7033C10.5788 19.704 8.63261 19.704 6.68574 19.7033C6.25844 19.7033 6.11334 19.5582 6.11334 19.1301C6.11261 17.1833 6.11261 15.2371 6.11334 13.2902C6.11334 12.8622 6.25771 12.7186 6.68646 12.7178C7.6599 12.7164 8.63334 12.7178 9.60605 12.7178V12.7171ZM8.41969 16.9959C7.93334 16.048 8.0048 15.3399 8.62824 14.8186C9.1773 14.3592 9.98303 14.3461 10.5452 14.7872C11.1978 15.2991 11.2766 15.9816 10.7939 17.0002C11.4341 17.4334 11.7534 18.0583 11.8023 18.8166H12.2084V13.6118H7.00074V18.8144H7.4149C7.45647 18.0342 7.7948 17.4305 8.41969 16.9959ZM10.8952 18.8181C10.9215 18.1027 10.3097 17.507 9.57615 17.5209C8.86959 17.534 8.27678 18.1407 8.32053 18.8181H10.8952ZM10.2594 15.9918C10.2594 15.6323 9.95824 15.3341 9.59949 15.3385C9.25021 15.3428 8.95928 15.6301 8.95272 15.978C8.94615 16.3374 9.23928 16.6408 9.59876 16.6459C9.95605 16.651 10.2587 16.3513 10.2587 15.9925L10.2594 15.9918Z" fill="white"/>
<path d="M22.9992 22H6V21H23V22H22.9992Z" fill="white"/>
<path d="M23 16V17H14V16H23Z" fill="white"/>
<path d="M23 14V15H17V14H23Z" fill="white"/>
<path d="M14 19V18H23V19H14Z" fill="white"/>
</svg>
