<svg width="35" height="35" viewBox="0 0 35 35" fill="none" xmlns="http://www.w3.org/2000/svg">
<circle cx="17.1125" cy="17.0846" r="17.0417" fill="#EFF0F6"/>
<path d="M23.7328 16.7811C23.1103 16.0543 22.8275 15.4244 22.8275 14.3542V13.9904C22.8275 12.5959 22.5065 11.6974 21.8087 10.7989C20.7332 9.4035 18.9226 8.5625 17.1502 8.5625H17.0748C15.3396 8.5625 13.5858 9.36488 12.4916 10.7036C11.7557 11.6201 11.3975 12.5572 11.3975 13.9904V14.3542C11.3975 15.4244 11.1333 16.0543 10.4922 16.7811C10.0205 17.3166 9.86978 18.0049 9.86978 18.7498C9.86978 19.4955 10.1145 20.2018 10.6057 20.7759C11.2468 21.4641 12.152 21.9035 13.0768 21.9799C14.4157 22.1326 15.7546 22.1901 17.1129 22.1901C18.4704 22.1901 19.8093 22.094 21.149 21.9799C22.0729 21.9035 22.9782 21.4641 23.6193 20.7759C24.1096 20.2018 24.3552 19.4955 24.3552 18.7498C24.3552 18.0049 24.2045 17.3166 23.7328 16.7811Z" fill="#8FA5C0"/>
<path opacity="0.4" d="M18.8241 23.2421C18.3981 23.1511 15.8025 23.1511 15.3765 23.2421C15.0124 23.3262 14.6186 23.5218 14.6186 23.9509C14.6398 24.3602 14.8794 24.7215 15.2114 24.9507L15.2105 24.9515C15.6399 25.2862 16.1438 25.499 16.6714 25.5754C16.9525 25.614 17.2388 25.6123 17.5301 25.5754C18.0568 25.499 18.5607 25.2862 18.99 24.9515L18.9892 24.9507C19.3212 24.7215 19.5608 24.3602 19.582 23.9509C19.582 23.5218 19.1882 23.3262 18.8241 23.2421Z" fill="#003570"/>
<circle cx="21.7989" cy="10.6937" r="3.40833" fill="#F26464" stroke="white" stroke-width="0.852083"/>
</svg>
