<svg width="16" height="18" viewBox="0 0 16 18" fill="none" xmlns="http://www.w3.org/2000/svg">
<path d="M14.7328 8.78113C14.1103 8.05427 13.8275 7.42437 13.8275 6.35424V5.99038C13.8275 4.59587 13.5065 3.69737 12.8087 2.79887C11.7332 1.4035 9.92264 0.5625 8.15017 0.5625H8.0748C6.3396 0.5625 4.58577 1.36488 3.49164 2.70362C2.75572 3.62014 2.3975 4.55725 2.3975 5.99038V6.35424C2.3975 7.42437 2.13329 8.05427 1.49222 8.78113C1.02052 9.31662 0.869781 10.0049 0.869781 10.7498C0.869781 11.4955 1.11452 12.2018 1.6057 12.7759C2.24676 13.4641 3.15205 13.9035 4.07681 13.9799C5.41569 14.1326 6.75456 14.1901 8.11291 14.1901C9.47042 14.1901 10.8093 14.094 12.149 13.9799C13.0729 13.9035 13.9782 13.4641 14.6193 12.7759C15.1096 12.2018 15.3552 11.4955 15.3552 10.7498C15.3552 10.0049 15.2045 9.31662 14.7328 8.78113" fill="#8FA5C0"/>
<path opacity="0.4" d="M9.82406 15.2421C9.39809 15.1511 6.80249 15.1511 6.37652 15.2421C6.01238 15.3262 5.61859 15.5218 5.61859 15.9509C5.63976 16.3602 5.87942 16.7215 6.21139 16.9507L6.21054 16.9515C6.6399 17.2862 7.14377 17.499 7.67136 17.5754C7.95252 17.614 8.23875 17.6123 8.53007 17.5754C9.05681 17.499 9.56069 17.2862 9.99005 16.9515L9.9892 16.9507C10.3212 16.7215 10.5608 16.3602 10.582 15.9509C10.582 15.5218 10.1882 15.3262 9.82406 15.2421" fill="#003570"/>
</svg>
