<svg width="19" height="19" viewBox="0 0 19 19" fill="none" xmlns="http://www.w3.org/2000/svg">
<path fill-rule="evenodd" clip-rule="evenodd" d="M13.7703 12.4998C14.0492 12.5731 14.3043 12.7179 14.5103 12.9198L18.6703 17.0998C18.881 17.3066 18.9997 17.5895 18.9997 17.8848C18.9997 18.1801 18.881 18.4629 18.6703 18.6698C18.4634 18.8805 18.1805 18.9992 17.8853 18.9992C17.59 18.9992 17.3071 18.8805 17.1003 18.6698L12.9203 14.4998C12.7168 14.2989 12.5716 14.0466 12.5003 13.7698L12.3203 13.0698C9.51277 15.4743 5.30698 15.2307 2.79594 12.518C0.284896 9.80533 0.366156 5.59327 2.97996 2.97947C5.59376 0.365668 9.80582 0.284407 12.5185 2.79545C15.2312 5.30649 15.4748 9.51228 13.0703 12.3198L13.7703 12.4998ZM3.62921 10.0155C4.56437 11.851 6.57603 12.8745 8.61027 12.5498C10.6338 12.2268 12.2221 10.6425 12.5503 8.61978C12.8801 6.58638 11.8617 4.57211 10.0286 3.6323C8.19551 2.69248 5.96556 3.04136 4.50708 4.49614C3.0486 5.95092 2.69406 8.17997 3.62921 10.0155Z" fill="#878E98"/>
</svg>
