<svg width="12" height="15" viewBox="0 0 12 15" fill="none" xmlns="http://www.w3.org/2000/svg">
<path d="M7.73522 0C7.94062 0.0893883 8.16575 0.149215 8.3469 0.2745C8.74522 0.550055 8.90454 0.965676 8.91286 1.44605C8.91494 1.56289 8.91286 1.67973 8.91286 1.81979C8.97035 1.81979 9.02092 1.81979 9.07149 1.81979C9.58584 1.81979 10.1002 1.81311 10.6142 1.82155C11.2169 1.83141 11.6616 2.10168 11.903 2.67637C12.1822 3.3408 11.8351 4.16043 11.1642 4.41135C11.0492 4.45428 11.0181 4.50883 11.0181 4.62813C11.0215 7.44035 11.0215 10.2529 11.0201 13.0651C11.0201 13.7109 10.8016 14.2581 10.2851 14.6579C9.98589 14.8898 9.64368 15.0003 9.26615 15C7.08891 14.9989 4.91167 15.0003 2.73444 14.9989C1.87823 14.9982 1.14255 14.3489 1.01821 13.4846C0.997426 13.3407 0.988074 13.1936 0.988074 13.0479C0.986342 10.2452 0.985996 7.44281 0.989459 4.6401C0.989459 4.51693 0.964868 4.4564 0.839138 4.41029C0.288767 4.20864 -0.0693722 3.58609 0.0113304 2.99944C0.0951502 2.3892 0.567589 1.88912 1.15918 1.8483C1.7047 1.81064 2.25368 1.82683 2.80094 1.81979C2.89168 1.81874 2.98243 1.81979 3.09327 1.81979C3.09327 1.67163 3.09084 1.53192 3.09361 1.39256C3.10678 0.723905 3.50752 0.21045 4.15279 0.0327288C4.18466 0.0239307 4.21479 0.0109096 4.24562 0C5.4087 0 6.57214 0 7.73522 0ZM1.67872 4.51024V4.70239C1.67872 7.4319 1.67872 10.1614 1.67976 12.8909C1.67976 13.0271 1.68842 13.164 1.70262 13.2995C1.76289 13.8812 2.19931 14.2947 2.77323 14.2958C4.92657 14.2997 7.07991 14.3004 9.23324 14.2951C9.67382 14.294 9.9994 14.0822 10.1961 13.6732C10.2987 13.4607 10.3208 13.2348 10.3212 13.0053C10.3226 10.2269 10.3222 7.44879 10.3222 4.67037C10.3222 4.61898 10.3222 4.56725 10.3222 4.51059H1.67872V4.51024ZM6.00514 3.78634C7.51355 3.78634 9.02162 3.78634 10.53 3.78634C10.5924 3.78634 10.6551 3.78634 10.7174 3.78282C11.0132 3.76698 11.2598 3.53119 11.2851 3.24156C11.3138 2.9097 11.1285 2.62323 10.8303 2.55637C10.7333 2.53455 10.6298 2.5356 10.5293 2.5356C7.51286 2.53455 4.49604 2.5349 1.47956 2.53525C1.40752 2.53525 1.33548 2.53736 1.26378 2.54405C1.00401 2.56798 0.78753 2.75485 0.728994 3.00296C0.663878 3.27922 0.768133 3.5692 1.01059 3.69202C1.13285 3.75396 1.28421 3.78211 1.42276 3.78282C2.95022 3.7888 4.47768 3.78669 6.00549 3.78669L6.00514 3.78634ZM3.79881 1.80747H8.20593C8.20593 1.65404 8.21217 1.51256 8.20489 1.37179C8.18446 0.981512 7.92572 0.709124 7.54299 0.705957C6.51568 0.698214 5.48802 0.698566 4.46071 0.705957C4.09876 0.70842 3.84488 0.948783 3.80193 1.31302C3.78357 1.47104 3.79881 1.63327 3.79881 1.80712V1.80747Z" fill="#FE642E"/>
<path d="M7.69049 9.09692C7.69049 8.04326 7.69048 6.98926 7.69118 5.9356C7.69118 5.86275 7.69637 5.7892 7.70884 5.71776C7.73621 5.55834 7.87094 5.44326 8.03096 5.43587C8.18509 5.42883 8.33195 5.53758 8.37005 5.69488C8.38598 5.76034 8.39464 5.82932 8.39464 5.89654C8.39603 8.03834 8.39568 10.1801 8.39568 12.3219C8.39568 12.4673 8.37663 12.6052 8.25367 12.702C8.04828 12.8643 7.75387 12.7513 7.70815 12.4912C7.69568 12.4198 7.69118 12.3459 7.69118 12.2734C7.69014 11.2148 7.69049 10.1559 7.69049 9.09727V9.09692Z" fill="#FE642E"/>
<path d="M4.30662 9.09645C4.30662 10.1705 4.30801 11.2446 4.30455 12.319C4.30455 12.4133 4.29104 12.5161 4.25224 12.6002C4.18886 12.7378 4.06174 12.7888 3.91523 12.7695C3.77426 12.7512 3.67659 12.6695 3.6371 12.5295C3.62013 12.4696 3.6132 12.4049 3.6132 12.3426C3.61217 10.1846 3.61217 8.02661 3.61251 5.86827C3.61251 5.6184 3.70742 5.48115 3.90034 5.44561C4.09984 5.40901 4.27753 5.53922 4.30108 5.74228C4.30766 5.80034 4.30662 5.85912 4.30662 5.91789C4.30662 6.97753 4.30662 8.03681 4.30662 9.09645Z" fill="#FE642E"/>
<path d="M5.65573 9.09753C5.65573 8.01854 5.65539 6.93954 5.65573 5.86055C5.65573 5.63954 5.73886 5.49983 5.8923 5.45232C6.09596 5.38967 6.29408 5.50757 6.3398 5.72189C6.34984 5.76905 6.34984 5.81867 6.34984 5.86723C6.35019 8.02522 6.35054 10.1832 6.34984 12.3412C6.34984 12.6048 6.22792 12.7625 6.01941 12.7723C5.83307 12.7811 5.6831 12.6541 5.66093 12.4658C5.654 12.4077 5.65539 12.3489 5.65539 12.2902C5.65539 11.226 5.65539 10.1614 5.65539 9.09718L5.65573 9.09753Z" fill="#FE642E"/>
</svg>
